<?xml version="1.0" encoding="utf-8"?>
<!DOCTYPE svg PUBLIC "-//W3C//DTD SVG 1.1//EN" "http://www.w3.org/Graphics/SVG/1.1/DTD/svg11.dtd">
<svg version="1.1" id="jaco" xmlns="http://www.w3.org/2000/svg" xmlns:xlink="http://www.w3.org/1999/xlink" x="0px"
	 y="0px" width="398px" height="210px" viewBox="0 0 398 210" enable-background="new 0 0 398 210" xml:space="preserve">
<path d="M225.978,109.267c-0.435-2.892-1.064-5.532-2.253-8.887c0.207-0.813,0.749,0.34,1.589,0.148
	c-0.555-2.731-1.658-5.042-2.864-7.16c-1.214-2.124-2.525-4.06-3.699-6.217c-2.383-3.097-5.483-6.373-9.743-9.119l-0.398-0.257
	l-0.567-0.325l-0.647-0.37c-0.362-0.224-1.043-0.557-1.623-0.847c-0.621-0.316-1.154-0.544-1.71-0.792
	c-0.555-0.254-1.114-0.473-1.676-0.69c-2.246-0.874-4.533-1.558-6.813-2.087c-4.561-1.065-9.09-1.46-13.268-1.464
	c-4.178,0.021-8.009,0.448-11.183,1.056c-3.816,0.704-7.685,1.934-11.442,3.809c-1.87,0.963-3.713,2.066-5.474,3.369
	c-1.75,1.321-3.435,2.797-4.963,4.474c-0.387,0.412-0.745,0.86-1.113,1.293l-0.555,0.673l-0.384,0.489L147,86.607
	c-0.072,0.095-0.104,0.129-0.226,0.298l-0.606,0.857c-0.417,0.583-0.733,1.134-1.083,1.708c-0.683,1.237-1.363,2.549-1.887,4.375
	c-0.511,1.787-0.851,4.106-0.419,6.666c0.204,1.262,0.617,2.537,1.158,3.679c0.268,0.583,0.576,1.081,0.895,1.605
	c0.32,0.499,0.652,0.927,1.002,1.374c1.387,1.674,2.783,2.717,4.018,3.521c2.493,1.57,4.537,2.307,6.425,2.965
	c1.872,0.623,3.589,1.083,5.194,1.491c0.836,0.21,1.67,0.419,2.501,0.627l1.171,0.265l0.585,0.13l0.296,0.066l0.405,0.078
	c1.065,0.193,2.199,0.43,3.173,0.511l1.502,0.158l1.519,0.073c2.019,0.085,4.039-0.036,5.957-0.293
	c1.933-0.248,3.727-0.673,5.423-1.132c1.667-0.48,3.244-1.007,4.688-1.557c2.911-1.096,5.467-2.213,7.917-3.234
	c-1.442-1.004-0.599-2.929-0.723-4.376c-0.12-1.438-1.294-2.429-6.865-1.375c2.908-2.627-1.419-4.741-3.979-6.519
	c-2.186,0.425-4.221,0.765-6.064,0.895c-1.851,0.132-3.516,0.072-5.243-0.202c-0.43-0.05-0.872-0.175-1.31-0.249
	c-0.453-0.081-0.761-0.204-1.152-0.285l-0.284-0.067l-0.462-0.142l-0.925-0.286l-0.464-0.142l-0.116-0.036l-0.053-0.016
	c0.045,0.013,0.275,0.081,0.138,0.04l-0.03-0.01l-0.237-0.076l-0.94-0.304c-1.475-0.474-2.908-0.933-4.161-1.379
	c0.846-0.923,1.814-1.793,2.909-2.595c1.543-1.097,3.313-2.059,5.241-2.852c7.733-3.155,17.898-3.412,25.611-0.728
	c0.476,0.159,0.952,0.356,1.387,0.521l0.536,0.229c0.098,0.042,0.164,0.062,0.289,0.12l0.444,0.223
	c0.821,0.361,1.491,0.826,2.26,1.331c1.489,1.067,2.966,2.397,4.308,3.908c2.69,3.03,4.888,6.629,6.394,10.246
	c-0.143-0.341-0.27-0.666-0.072-0.633c0.126-0.019,0.252-0.013,0.436,0.475c1.732,3.403,2.591,6.574,2.938,9.471
	c0.176,1.452,0.206,2.841,0.104,4.166c-0.006,0.339-0.063,0.656-0.095,0.982c-0.026,0.331-0.083,0.646-0.141,0.961
	c-0.048,0.32-0.104,0.637-0.187,0.939c-0.071,0.307-0.141,0.651-0.206,0.821c-0.149,0.167-0.226,0.251-0.338,0.44
	c-0.159,0.275-0.283,0.511-0.375,0.706c-0.186,0.39-0.248,0.614-0.205,0.65c0.042,0.036,0.189-0.117,0.419-0.479
	c0.115-0.182,0.252-0.416,0.407-0.706c0.08-0.157,0.173-0.341,0.282-0.554c0.037-0.074,0.076-0.153,0.118-0.237
	c0.04-0.124,0.081-0.252,0.125-0.388c0.08-0.273,0.198-0.556,0.261-0.891c0.164-0.65,0.308-1.407,0.404-2.244
	c0.199-1.67,0.199-3.656,0.045-5.587c-0.281-3.872-1.199-7.429-0.334-8.023c0.448,2.138,0.227,1.593,1.274,3.006
	c-0.041-0.386-0.176-0.91-0.341-1.477c-0.194-0.56-0.395-1.17-0.599-1.718c-0.391-1.103-0.686-2.003-0.204-2.027
	c0.445,0.799,0.885,2.059,1.267,3.18c0.378,1.124,0.702,2.112,1.007,2.393c-0.242-1.796-0.988-4.122-1.967-6.384
	c-0.967-2.271-2.184-4.452-3.063-6.185c1.798,2.621,3.287,5.915,4.307,7.056c-1.431-3.458-3.062-6.219-4.622-8.563
	c-1.582-2.334-3.074-4.285-4.519-6.103c2.972,2.704,5.496,6.15,7.416,9.443c1.942,3.296,3.29,6.447,4.315,8.726
	c-0.687-2.456-1.942-5.129-1.864-6.169c0.907,1.859,1.977,4.281,2.018,5.366c0.71-0.786,1.604,1.021,2.354,1.549
	c-0.796,2.013,0.816,3.105,1.068,3.574c0.194,1.082,0.01,1.15-0.049,1.465c-0.076,0.318-0.029,0.878,0.249,3.008
	c0.435-0.241,0.342-1.942,0.124-3.567c-0.21-1.627-0.527-3.178-0.043-3.289c0.307,0.876,0.588,3.177,0.718,5.324
	c0.153,2.148,0.138,4.148,0.665,4.523C226.68,115.323,226.369,112.156,225.978,109.267z M160.3,94.336h0.002h0.001l-0.002,0.015
	c-0.002-0.004-0.004-0.015-0.006-0.015C160.294,94.336,160.298,94.336,160.3,94.336z M221.448,106.249
	c-0.262-0.803-0.487-1.195-0.697-1.281c-0.292-0.795,0.101-0.703,0.273-0.897c-0.203-0.589-0.331-0.607-0.46-0.594
	c-0.161-0.996,0.051-0.573,0.339,0.128c0.277,0.706,0.639,1.676,0.847,1.752C222.02,106.177,221.626,106.062,221.448,106.249z
	 M221.683,96.088c-0.244-1.035-1.889-3.244-2.268-4.231c0.517,0.165,1.124,1.292,1.59,2.205c0.481,0.903,0.861,1.589,1.122,0.829
	C223.042,96.384,221.708,95.562,221.683,96.088z"/>
<g>
	<path d="M306.539,113.264c0.443-0.819,3.521-1.823,3.429-2.657C308.294,111.853,305.557,112.925,306.539,113.264z"/>
	<path d="M257.857,121.877c1.494,0.106,3.298,0.214,4.393-0.17c-0.988,0.16-1.95-0.003-2.716-0.103
		C258.763,121.511,258.184,121.455,257.857,121.877z"/>
	<path d="M295.538,113.437c0.859-0.473,1.826-0.952,2.209-1.461C296.86,112.303,295.242,112.646,295.538,113.437z"/>
	<path d="M254.915,104.812v0.019v0.037v0.001C254.916,104.884,254.915,104.875,254.915,104.812z"/>
	<path d="M314.632,105.521c-0.492,0.371-1.042,0.786-1.594,1.201c-1.096,0.817-2.222,1.57-3.013,1.756
		c-0.202-0.333,0.75-0.776,0.224-1.079c-2.139,1.188-4.733,2.886-5.758,2.922c0.254-0.739,2.245-1.559,3.206-2.741
		c-3.307,2.2-5.909,3.226-8.595,4.621c-1.936,1.014-4.691,3.181-6.233,2.62c0.727-0.461,2.829-0.847,2.245-1.413
		c-2.532,0.842-5.419,2.257-8.455,3.674c-3.032,1.415-6.22,2.824-9.208,3.708c-1.565,0.476-4.081,0.996-5.252,0.573
		c-0.809,0.637-2.428,1.067-3.997,1.348c-1.57,0.291-3.09,0.373-3.713,0.564c0.298-0.539,1.517-0.639,2.746-0.801
		c1.228-0.161,2.463-0.376,2.73-0.928c-2.722,0.349-5.663,0.904-8.487,1.023c-2.804,0.125-5.517-0.258-7.247-1.315
		c0.297-0.408,1.823,0.447,2.256,0.11c-1.335-0.328-0.079-0.189-0.185-0.667c1.843,0.516,4.246,0.612,6.68,0.378
		c2.441-0.245,4.916-0.779,7.071-1.35c3.211-0.646-0.544-0.123-1.45,0.012c-1.299,0.239-3.089,0.708-4.82,0.968
		c-1.726,0.268-3.392,0.322-4.311,0.013c2.292-0.222,5.228-0.478,8.11-1.047c2.875-0.539,5.663-1.329,7.524-2.174
		c-3.452,0.743-6.75,1.558-10.013,2.041c-3.24,0.474-6.518,0.608-9.39-0.275c1.239,0.025,2.759,0.123,4.489,0.118
		c1.724,0.004,3.654-0.104,5.572-0.358c3.834-0.494,7.581-1.531,9.406-2.766c-0.9,0.475-2.95,1.228-3.436,0.76
		c1.067-0.191,1.888-0.484,2.315-0.901c-1.849,0.177-3.386,1.328-4.771,0.928c6.415-2.195,13.484-4.803,19.239-7.919
		c-1.338,0.476-3.197,1.529-3.511,0.734c1.72-1.341,4.622-2.406,7.58-3.627c2.955-1.211,5.952-2.589,7.758-4.252
		c-0.978,0.193-2.656,1.402-3.351,1.098c1.89-0.97,4.201-2.121,6.293-3.395c1.042-0.635,2.029-1.297,2.851-1.95
		c0.414-0.326,0.784-0.65,1.085-0.955l0.223-0.229c0.064-0.071,0.079-0.109,0.12-0.164l0.099-0.15
		c0.086-0.102,0.171-0.203,0.254-0.303c-0.363,0.284-0.758,0.594-1.156,0.905c-0.467,0.355-0.971,0.728-1.492,1.058
		c-1.033,0.659-2.058,1.14-2.769,1.022c1.071-0.824,2.034-1.017,1.714-1.533c-2.982,1.517-6.329,3.097-9.733,4.623
		c-3.415,1.529-6.931,3.026-10.486,4.414c-3.554,1.384-7.158,2.664-10.713,3.688c-3.541,1.023-7.077,1.784-10.159,2.036
		c-1.542,0.137-2.912,0.098-4.012-0.016c-1.081-0.134-1.806-0.342-2.202-0.496c-0.204-0.087-0.386-0.133-0.541-0.262
		c-0.167-0.12-0.36-0.272-0.541-0.575c-0.394-0.546-0.762-1.612-0.937-2.973c-0.042-0.342,0.029-0.681,0.021-1.064
		c-0.021-0.372,0.084-0.741,0.084-1.148v-0.597v-0.149c0-0.06-0.066-0.514-0.226,0.66l-0.05-0.1l0.02-0.404l0.087-0.807l0.044-0.403
		c0.009-0.089,0.011-0.084,0.017-0.1l0.014-0.043c0.053-0.134,0.018-0.203,0.066-0.419c0.089-0.263,0.167-0.53,0.237-0.805
		c0.123-0.268,0.236-0.539,0.344-0.818c0.124-0.276,0.297-0.547,0.435-0.83c1.279-2.225,3.559-4.471,6.371-6.197
		c1.91-1.196,3.898-2.101,5.918-2.896c2.026-0.793,4.096-1.483,6.322-2.184c1.842-0.591,3.658-1.173,5.381-1.726
		c1.734-0.542,3.404-1.009,4.895-1.28c2.124-0.43,4.801-0.319,6.468-0.238c0.848,0.015,1.456,0.009,1.72-0.27
		c0.249-0.265,0.127-0.765-0.688-1.633c-1.193-0.579-2.982-0.751-4.275-1.616c1.294,0.059,1.853-0.595,3.685,0.142
		c-0.021-0.559-0.47-0.913-1.064-1.174c-0.588-0.287-1.323-0.434-1.922-0.642c0.63-1.358,1.577-2.551,3.624-2.767
		c0.604,0.077,1.55,0.539,2.343,0.87c0.79,0.377,1.446,0.62,1.544,0.223c-0.559-0.343-1.116-0.607-1.649-0.778
		c-0.536-0.152-1.046-0.249-1.518-0.335c-0.944-0.154-1.731-0.208-2.345-0.635c0.72,0.048,1.506,0.157,2.189,0.183
		c0.682,0.064,1.268,0.033,1.586-0.254c0.017-0.272-0.53-0.519-1.115-0.758c-0.584-0.225-1.202-0.399-1.35-0.661
		c0.278-0.146,0.703-0.177,1.21-0.141c0.509,0.044,1.104,0.203,1.715,0.36c0.61,0.142,1.242,0.391,1.829,0.574
		c0.588,0.179,1.134,0.339,1.582,0.431c-0.965-0.604-1.886-1.095-2.398-1.59c-0.506-0.44-0.605-0.813,0.134-1
		c-0.599-0.401-1.308-0.581-1.97-0.81c-0.658-0.192-1.27-0.429-1.757-1.016c0.798,0.292,1.419,0.469,1.923,0.608
		c0.509,0.161,0.895,0.258,1.2,0.347c0.609,0.185,0.893,0.298,1.168,0.892c0.371-0.634,3.143,0.125,2.254-0.934
		c-2.274-1.189-4.604-1.938-6.723-2.531c-2.098-0.533-3.987-0.893-5.415-1.168c2.087-0.042,4.833,0.504,7.57,1.484
		c2.738,0.937,5.413,2.316,7.483,3.138c-3.013-2.095-6.139-3.423-9.146-4.3c-3.019-0.875-5.958-1.32-8.825-1.511
		c-5.74-0.377-11.183,0.307-16.473,1.638c-5.272,1.394-10.399,3.458-15.308,6.529c-2.451,1.531-4.852,3.305-7.121,5.468
		c-2.264,2.153-4.413,4.668-6.212,7.65c-0.751,1.186-1.373,2.512-1.972,3.82c-0.533,1.403-1.031,2.607-1.461,4.469l-0.294,1.29
		l-0.068,0.322l-0.025,0.18l-0.042,0.338l-0.281,2.246c-0.04,1.191-0.077,2.363-0.021,3.606c0.093,2.458,0.4,5.046,1.16,7.752
		c0.753,2.692,2.008,5.526,3.902,8.061c0.93,1.271,2.043,2.429,3.215,3.468c1.199,1,2.463,1.897,3.76,2.586
		c2.593,1.412,5.207,2.185,7.626,2.596c4.862,0.788,9.051,0.337,12.913-0.367c3.861-0.729,7.402-1.817,10.792-3.052
		c3.386-1.24,6.614-2.637,9.753-4.124c6.273-2.986,12.212-6.283,18.065-9.847c-0.6-0.396,0.23-0.831,0.644-1.253
		c2.041-1.159,3.707-2.368,5.22-3.625c0.754-0.637,1.474-1.272,2.177-1.95c0.355-0.336,0.694-0.677,1.056-1.04l0.539-0.556
		l0.475-0.526C315.6,104.829,315.166,105.126,314.632,105.521z M259.899,123.556c0.7-0.52,2.615-0.304,4.205-0.465
		C262.897,123.834,261.824,123.535,259.899,123.556z"/>
	<path d="M291.675,79.342c0.539,0.077,1.591,0.425,2.452,0.678c0.85,0.299,1.509,0.529,1.268,0.28
		C294.185,79.631,291.171,78.95,291.675,79.342z"/>
	<path d="M277.152,119.64c-1.637,0.447-3.112,0.875-3.854,1.507C274.469,120.653,276.34,120.282,277.152,119.64z"/>
</g>
<g>
	<path d="M343.527,99.729c0.438,0.074,0.261,0.452,0.533,0.508C344.335,99.509,343.378,99.386,343.527,99.729z"/>
	<path d="M338.468,88.819c-0.125,0.196-0.267-0.268-0.397-0.078c0.131,0.432,0.255,0.701,0.361,0.717
		C338.104,88.747,338.64,89.317,338.468,88.819z"/>
	<path d="M336.754,89.082c-0.229-0.447-0.321-0.369-0.505-0.619c0.289,0.396,0.288,0.79,0.482,0.864
		C336.628,89.124,336.682,89.095,336.754,89.082z"/>
	<path d="M337.002,88.522c0.289-0.227-0.661-0.374-0.197,0.32C336.896,88.607,336.909,88.768,337.002,88.522z"/>
	<path d="M338.062,87.704c0.103-0.036,0.204-0.076,0.322-0.097C338.319,86.982,337.774,87.149,338.062,87.704z"/>
	<path d="M338.558,85.516c-0.322,0.473-0.897-0.122-0.963,0.674C337.786,85.972,338.642,86.529,338.558,85.516z"/>
	<path d="M358.811,89.313c-0.335-0.035-0.485-0.316-0.63-0.612c-0.185-0.275-0.372-0.56-0.695-0.549
		c0.133,0.15,0.25,0.467,0.451,0.719C358.095,89.142,358.343,89.348,358.811,89.313z"/>
	<path d="M357.13,86.614c-0.19-0.169-0.343-0.469-0.688-0.1C356.625,86.685,356.768,86.97,357.13,86.614z"/>
	<path d="M360.868,92.251c-0.334,0.025-0.425,0.143-0.39,0.245c0.035,0.185,0.19,0.522,0.335,0.5c-0.08-0.218-0.01-0.357,0.052-0.5
		C360.927,92.398,360.978,92.35,360.868,92.251z"/>
	<path d="M360.029,103.284c0.604-0.041,0.836-0.465,0.895-0.959c0.019-0.515-0.129-1.085-0.275-1.478
		c-0.159,0.354-0.12,0.819-0.113,1.292C360.513,102.596,360.425,103.043,360.029,103.284z"/>
	<path d="M361.766,98.415c-0.318,2.052-0.342,5.08-0.606,7.387C361.808,103.446,362.254,100.806,361.766,98.415z"/>
	<path d="M354.696,114.797c-0.291,0.344-0.743,0.595-0.834,1.03C354.257,115.536,354.896,115.347,354.696,114.797z"/>
	<path d="M342.744,122.217c-0.391,0.168-1.101,0.065-0.979,0.668C342.248,122.792,342.621,122.605,342.744,122.217z"/>
	<path d="M341.64,127.198c0.172-0.064,0.329-0.139,0.196-0.454c-0.341,0.025-0.529,0.177-0.485,0.523
		c0.184,0,0.139,0.193,0.09,0.386c0.186-0.156,0.807,0.045,0.681-0.366C341.943,127.297,341.717,127.418,341.64,127.198z"/>
	<path d="M340.583,127.243c-0.926,0.329-1.257,0.217-1.811,0.787c0.76-0.038,0.714-0.155,1.357-0.083
		C339.654,127.255,341.229,127.563,340.583,127.243z"/>
	<path d="M347.672,125.465c-0.639,0.167-1.201,0.176-1.652,0.749C346.573,126.204,347.572,125.856,347.672,125.465z"/>
	<path d="M345.356,130.537c-0.533,0.274-1.586,0.159-1.786,0.679C344.103,130.945,345.166,131.059,345.356,130.537z"/>
	<path d="M345.509,130.492c0.631,0.743,2.071-0.435,3.029-0.516c0.166-0.308-0.423-0.093-1.139,0.162
		C346.682,130.383,345.837,130.646,345.509,130.492z"/>
	<path d="M357.691,127.124c-0.915,0.929-2.827,1.406-3.698,2.25C355.164,128.68,357.333,128.259,357.691,127.124z"/>
	<path d="M337.899,142.07c0.238,0.57,0.252,1.594,0.835,1.464C338.474,143.009,338.316,142.277,337.899,142.07z"/>
	<path d="M333.97,88.713c0.133-0.084,0.262-0.184,0.39-0.287c-0.049-0.042-0.113-0.143-0.184-0.143h0.18h0.001l0.002,0.084
		c0.028-0.02,0.053-0.012,0.078-0.03c-0.001,0.012-0.003,0.023-0.005,0.033c0.01-0.008,0.021-0.014,0.032-0.023l0.12-0.105
		l0.06-0.055l0.029,0.041l-0.106,0.054h-0.002c0.042-0.432,0.076-0.279,0.12-0.416c-0.307-0.044-0.282,0.174-0.449,0.194
		C334.239,88.306,333.739,88.43,333.97,88.713z"/>
	<path d="M379.911,92.689c-0.166-0.119-0.302-0.27-0.412-0.448l-0.004-0.009l-0.002,0.216L379.417,92h0.147H380v-0.443l-0.304-0.013
		l-0.168-0.025l-0.114-0.052l-0.11-0.111c-0.047-0.076-0.106-0.159-0.14-0.247l-0.75-2.756l-0.282-0.951
		c-0.095-0.32-0.196-0.639-0.297-0.878l-0.613-1.561c-0.414-1.035-0.939-2.027-1.445-3.016c-0.567-0.95-1.103-1.935-1.758-2.811
		c-1.236-1.833-2.706-3.419-4.236-4.899c-1.566-1.416-3.22-2.716-4.973-3.755c-2.456-1.483-5.192-1.962-7.825-2.573
		c-2.757-0.641-5.591-1.717-8.417-1.892c-5.358-0.354-11.305,0.117-16.524,2.199c-0.747,0.31-1.403,0.764-2.004,1.272
		c-0.606,0.488-1.167,0.948-1.771,1.267c-0.101,0.05-0.569,0.255-0.498,0.244c-1.898,0.312-3.819,1.228-5.587,2.703
		c-0.22,0.183-0.443,0.368-0.667,0.556l-0.308,0.294l-0.114,0.113l-0.229,0.231c-0.299,0.316-0.604,0.638-0.917,0.967
		c-0.161,0.178-0.292,0.311-0.481,0.532c-0.193,0.232-0.387,0.466-0.583,0.703c-0.386,0.476-0.778,0.962-1.18,1.458
		c-1.333,1.839-2.792,3.697-3.895,5.847c-0.591,1.013-1.015,2.163-1.408,3.201c-0.172,0.543-0.301,1.093-0.419,1.613
		c-0.121,0.52-0.211,1.023-0.229,1.529c-0.214,2.146-0.016,4.413,0.435,6.55c0.482,2.153,1.355,4.138,2.387,5.895
		c1.062,1.744,2.33,3.212,3.643,4.467c1.346,1.209,2.718,2.245,4.122,3.012c1.543,0.901,3.274,1.211,4.883,1.422
		c0.804,0.077,1.598,0.152,2.369,0.226c0.771,0.053,1.489,0.172,2.188,0.32c4.228,0.98,8.448,1.815,11.491,1.71
		c1.165-0.437,2.388-1.86,3.308-1.86c0.327-0.96,1.05-1.209,1.579-1.741c-0.031-0.742,0.242-1.017,0.125-1.581
		c-0.359-0.284-0.991-0.414-1.072,0.367c-0.011-0.234,0.04-0.562-0.096-0.597c-0.664,0.763-1.007,0.806-1.896,1.262
		c0.213-0.623-0.378-0.186-0.163-0.81c-0.403,0.112-0.973,0.231-1.554,0.313c-0.579,0.057-1.167,0.066-1.591,0.007
		c0.151-0.005,0.341,0.095,0.404-0.13c-1.792-0.983-4.206-0.952-5.679-1.994c-0.354,0.169-0.027,0.507-0.326,0.512
		c-0.341-0.191-0.547-0.875-1.055-1.283c-0.137,0.263-0.25,0.687-0.428,0.677c0.539-1.069-0.932,0.003-1.049-0.92
		c0.192-0.161,0.373-0.406,0.54-0.836c0.395-0.099,0.663,0.362,1.173-0.332c-0.577-0.321-0.695-0.516-1.542-0.963
		c0.495-0.747,0.069-0.847-0.418-0.998c-0.503-0.133-1.087-0.313-0.838-1.109c0.394,0.126,1.096,0.492,1.799,0.854
		c0.366,0.166,0.731,0.333,1.058,0.465c0.336,0.121,0.643,0.196,0.866,0.211c-0.504-0.692-1.312-1.047-2.078-1.402
		c-0.768-0.349-1.458-0.727-1.688-1.331c1.461,0.816,3.32,1.307,5.074,1.741c1.765,0.438,3.422,0.855,4.771,1.699
		c-0.062,0.226-0.28,0.395-0.124,0.582c0.1-0.217,0.205-0.413,0.331-0.533c-0.03,0.231-0.131,0.546-0.014,0.605
		c0.327-0.921,0.667-0.058,0.983-0.632c0.022,0.378,0.001,0.812,0.153,1.033c1.693,0.361,1.684,1.673,3.499,0.742
		c0.036-0.35-0.068-0.994,0.235-0.786c-0.109-0.933-0.663-1.017-0.822-1.818c-1.229-0.294-2.319-1.066-3.345-1.691
		c-1.026-0.673-2.009-1.184-3.217-1.212c0.395,0.397,0.886,0.509,1.32,0.662c0.429,0.176,0.804,0.39,1.028,1.023
		c-1.609-0.772-3.447-1.514-5.085-2.398c-1.641-0.872-3.012-1.914-3.707-2.923c-0.198-0.093-0.488-0.197-0.712-0.335
		c-0.122-0.069-0.25-0.139-0.377-0.21c-0.118-0.074-0.202-0.156-0.298-0.236c-0.087-0.082-0.188-0.165-0.239-0.251
		c-0.044-0.086-0.076-0.173-0.09-0.261c-0.038-0.177,0.024-0.357,0.238-0.544c-0.144,0.312,0.174,0.833,0.99,0.287
		c-0.228,0.212-0.513,0.455-0.372,0.476c0.634,0.137,1.392,0.909,2.606,1.813c1.179,0.9,2.75,1.846,4.037,2.245
		c-0.319-0.586-0.996-0.594-0.952-1.241c0.409,0.152,1.934,0.769,2.389,1.318c0.139-0.652,0.269-0.238,0.319-0.106
		c0.307-0.796-0.664-0.174-0.215-1.112c0.972,0.834,1.938,1.779,3.038,2.573c1.092,0.812,2.328,1.504,3.72,1.771
		c-0.06-0.47,0.265-0.61,0.476-0.973c-0.807,0.583-1.124-1.25-1.877-0.686c0.167,0.041,0.293,0.154,0.336,0.424
		c-1.653-0.64-3.447-1.631-5.041-2.795c-1.606-1.149-2.968-2.511-3.891-3.665c-0.821-0.112-1.38-0.591-1.743-1.05
		c-0.131-0.212-0.275-0.417-0.333-0.602c0.032-0.074,0.068-0.144,0.098-0.219c0.063-0.122,0.114-0.255,0.155-0.403
		c-0.279-0.131-0.348,0.006-0.403,0.167c-0.005-0.026-0.007-0.058-0.014-0.08c-0.168,0.144-0.384,0.349-0.515,0.447
		c-0.001,0-0.002,0-0.003-0.001c-0.002-0.009,0-0.017-0.001-0.026c0.21-0.185,0.464-0.4,0.481-0.458
		c-0.1-0.063-0.095-0.103-0.134-0.137c0.012-0.012,0.027-0.024,0.038-0.039c0.133-0.172,0.136-0.449-0.313-1.02
		c0.054,0.022,0.211,0.139,0.342,0.26c0.136,0.118,0.269,0.223,0.374,0.141c-0.577-0.769,0.145-0.701,0.584-0.845
		c-0.196-0.283-0.508-0.214-0.415-0.426c0.293,0.032,0.555-0.171,0.806-0.486c0.063-0.078,0.125-0.164,0.188-0.254l0.047-0.069
		l-0.022-0.018L337,90.587v-0.018c0,0.032,0.095,0.06,0.131,0.102c-0.484-0.82,0.14-0.112-0.33-0.933
		c-0.29-0.4,0.103,0.553-0.385-0.237c0.256,0.113,0.16-0.509-0.159-0.813c0.473,1.01-0.443-0.131-0.072,0.745
		c-0.215-0.076-1.144-0.839-0.736-0.182c-0.271-0.335-0.448-0.493-0.448-0.559c0,0.004,0,0.008,0,0.013
		c0,0.017-0.007,0.036-0.005,0.053c0.328,0.362,0.289,0.54,0.203,0.54c0.02,0.035,0.036,0.07,0.057,0.105
		c-0.436-0.037-0.124,0.14-0.417,0.401c-0.166-0.405-0.823-0.517-0.485-0.083c0.111-0.047,0.235,0.002,0.379,0.183
		c-0.376,0.287-0.738-0.129-0.379,0.645c-0.134,0.271-0.999-0.552-0.689,0.119c0.145-0.083,0.313,0,0.483,0.082
		c-0.429,0.169-0.345,0.308-0.325,0.485c0.032,0.169,0.083,0.315-0.052,0.239c-0.588-0.703,0.144-0.273-0.348-0.827
		c-0.511-0.054-0.092,0.786-0.669,0.479c-0.259-0.366-0.106-0.574,0.035-0.79c0.084-0.117,0.111-0.195,0.191-0.375
		c0.127-0.214,0.19-0.44,0.128-0.687c-0.1,0.084-0.196,0.183-0.292,0.292l-0.14,0.17c-0.021,0.041-0.031,0.073-0.047,0.112
		c-0.056,0.15-0.107,0.312-0.179,0.45c-0.142,0.283-0.365,0.444-0.898,0.429c0.141-0.252,0.28-0.503,0.414-0.744
		c0.139-0.245,0.194-0.437,0.391-0.704c0.558-0.632,1.1-1.119,1.684-1.305c-0.037-0.018-0.071-0.033-0.119-0.062
		c0.598-1.167,2.098-2.287,4.083-2.996c0.976-0.369,2.036-0.682,3.111-0.925c1.068-0.265,2.141-0.5,3.164-0.762
		c-0.018,0.367,0.33,0.156,0.362,0.433c0.2-0.379,0.6-0.458,1.015-0.533c0.417-0.088,0.847-0.169,1.126-0.539
		c0.164,0.146,0.411,0.188,0.435,0.493c-0.454,0.555-0.751-0.39-1.058,0.589c1.605-0.087,2.857,0.021,4.153,0.224
		c1.292,0.217,2.658,0.533,4.366,1.244c0.39-0.055,0.826-0.324,1.24-0.339c0.238,0.351,0.564,0.595,0.987,0.875
		c0.382,0.308,0.885,0.642,1.316,1.223c-0.222,0.396-0.169,0.728-0.029,1.025c0.153,0.289,0.444,0.523,0.656,0.736
		c0.482,0.407,0.974,0.862,1.449,1.385c0.217,0.269,0.5,0.529,0.685,0.84c0.191,0.286,0.465,0.661,0.582,0.878l0.238,0.386
		c0.041,0.081,0.084,0.1,0.124,0.233l0.115,0.411l0.213,0.826l0.05,0.207l0.024,0.104l0.036,0.016l0.012,0.107
		c0.062,0.48,0.119,0.966,0.129,1.443c0,0.475-0.027,0.948-0.074,1.414c1.08,0.436,0.742,1.533,0.1,1.797
		c-0.019,1.359-0.024,2.714-0.063,4.104c-0.061,1.38-0.211,2.777-0.52,4.158c-0.611,2.741-2.044,5.406-4.23,6.964
		c0.946-1.666,2.351-2.711,2.679-4.425c-0.604,0.066-0.857,0.938-1.271,1.659c-0.404,0.721-0.966,1.242-1.856,0.481
		c0.291-0.05,0.233-0.669-0.033-0.525c0.191,0.458-0.453,0.709-0.34,1.157c0.188-0.125,0.38-0.174,0.62-0.039
		c-0.642,0.835-1.164,1.861-1.852,2.798c-0.675,0.941-1.511,1.79-2.621,2.202c-0.046-0.829,1.06-1.228,0.29-1.781
		c-0.008,0.848-0.964,0.589-0.75,2.043c-0.427,0.025-1.231,0.921-1.311,1.565c-0.385,0.079-1.261,0.919-1.151,0.107
		c-1.404,0.689-2.27,1.684-3.604,2.495c-0.115-0.29-0.208-0.653-0.455-0.47c-0.276,1.261-1.572,0.99-2.701,1.666
		c-0.087-0.315,0.344-0.218,0.295-0.5c-0.799,0.052-0.445,0.342-0.513,0.767c-0.25-0.799-0.919-0.399-0.821,0.217
		c0.287,0.02,0.429-0.745,0.6,0.047c-2.335,1.051-4.435,1.707-7.449,2.813c2.015-0.118,4.667-1.523,5.046-0.579
		c0.66-0.278,2.502-1.846,4.186-1.716c-0.434,0.421-1.117,0.106-1.227,0.972c1.167-0.375,2.509-1.157,3.339-1.017
		c-0.994,0.9-3.316,1.4-4.457,1.928c1.869-0.191,3.788-0.776,4.926-1.459c0.325,1.409,1.489-0.499,1.513,1.14
		c0.671,0.097-0.246-0.82,0.151-0.895c0.128,0.269,0.205,0.704,0.419,0.689l-0.349-0.925c0.529,0.464,1.045-0.14,1.388-0.549
		c0.628,1.547,0.55,1.17,0.354,0.068c0.451-0.056,0.891-0.37,1.373-0.678c0.477-0.328,0.994-0.644,1.636-0.711
		c0.29,0.612-0.604,0.267,0.172,1.021c0.203-0.444,0.037-0.634,0.779-0.181c0.219-1.267,1.723-1.442,2.081-1.394
		c0.458-0.5,1.553-1.49,2.711-2.502c1.144-1.041,2.36-2.098,3.249-2.624c-0.056,0.118-0.217,0.224-0.086,0.364
		c1.454-1.615,2.485-3.794,3.284-5.954c0.815-2.174,1.418-4.306,2.455-6.279c-0.38-0.064-0.409-0.575-0.527-1.07
		c1.169,0.434,0.268-1.798,0.81-1.95c0.561,1.18,0.251,2.66-0.084,4.038c-0.188,0.686-0.371,1.356-0.459,1.99
		c-0.109,0.627-0.091,1.233,0.131,1.804c0.31-1.122,0.733-2.667,1.014-4.278c0.33-1.603,0.506-3.255,0.765-4.576
		c0.172,4.803-1.053,9.74-3.777,14.076c-2.704,4.347-6.706,8.017-11.49,10.979c-0.767,0.215-1.896,1.139-0.503,0.461
		c4.032-1.755,8.263-4.967,11.367-9.137c1.557-2.069,2.819-4.342,3.759-6.606c0.949-2.266,1.58-4.511,2.073-6.586
		c0.012,1.476-0.455,2.937-0.852,4.255c-0.41,1.323-0.774,2.509-0.612,3.638c-0.282-0.132-0.594-0.345-0.686,0.027
		c0.068,0.484,0.526,0.038,0.437,0.446c-0.832-0.369-0.412,0.428-1.057,0.606c0.237,0.181,0.657,0.326,0.583,0.565
		c-0.516-0.344-0.746-0.028-0.851,0.407c-0.107,0.432-0.075,1.012,0.024,1.2c-0.348-0.379-0.79,0.07-1.106,0.581
		c-0.308,0.519-0.447,1.167-0.044,1.26c1.561-1.781,3.055-5.14,4.127-8.151c0.197-0.36-0.465-0.392-0.374-0.707
		c0.586,0.351,0.638-0.13,0.664-0.653c0.039-0.521-0.013-1.09,0.516-0.972c-0.48,3.597-2.099,7.838-4.768,11.532
		c-2.648,3.724-6.22,6.723-9.652,8.929c0.053,0.298,0.676,0.798,0.321,0.951c-0.205,0.114-0.773,0.366-1.347,0.669
		c-0.575,0.284-1.159,0.616-1.399,0.939c1.11-0.517,2.214-1.084,3.312-1.692c-0.081-0.357-0.853-0.462-0.485-0.864
		c0.139,0.189,0.249,0.506,0.446,0.428c-0.43-1.247,1.362-1.517,1.789-1.543c0.19,1.175-1.979,0.738-1.593,1.888
		c2.109-1.457,4.602-3.427,6.408-4.989c-0.39-0.7-0.603,0.752-1.222,0.003c1.298-0.852,1.175-1.729,2.473-2.256
		c0.415,0.605-0.787,1.173-1.229,1.706c-0.052,0.56,1.115-0.819,1.515-1.151c1.285-1.482,2.674-3.811,4.034-5.176
		c-1.04,2.657-3.062,5.31-5.315,7.455c-2.251,2.176-4.688,3.848-6.592,5.28c0.26-0.125,0.539-0.343,0.675,0.068
		c-1.853,1.096-3.893,2.066-5.837,2.811c-1.945,0.728-3.794,1.252-5.291,1.54c-0.231,0.114-0.613,0.12-0.584,0.39
		c5.775-0.98,11.57-3.532,16.626-7.694c2.515-2.091,4.81-4.591,6.708-7.376c1.903-2.786,3.359-5.856,4.415-8.927
		c0.967-2.784,1.231-5.801,1.325-8.263c0.028-0.883-0.122-1.831-0.182-2.704c-0.021-0.44-0.002-0.869,0.1-1.28
		c0.086-0.405,0.255-0.791,0.554-1.157c0.253,1.783,0.279,3.865,0.114,6.103c-0.187,2.245-0.651,4.67-1.402,7.104
		c-0.75,2.435-1.814,4.877-3.114,7.118c-1.29,2.249-2.783,4.298-4.273,6.108c-1.035,1.284-2.427,2.618-3.996,3.904
		c-1.577,1.25-3.333,2.413-5.088,3.387c-3.518,1.924-6.977,3.111-9.111,3.64c-2.727,0.653,0.621,0.355,1.419,0.333
		c0.105,0.454-0.658,0.441-0.631,0.856c1.287-0.709,2.077-0.181,3.335-0.846c-0.351-0.851-1.632,0.783-1.875-0.322
		c1.558-0.2,3.574-1.873,4.669-0.715c0.914-0.654,1.935-1.03,2.909-1.489c0.971-0.499,1.898-1.079,2.521-2.229
		c0.532,0.398,0.002,0.573,0.096,0.881c1.028-0.915,1.946,0.048,2.293-1.323c-0.365,0.155-0.856,0.94-1.062,0.272
		c2.691-1.689,4.357-3.225,5.956-6.119c0.576-0.076,1.16-0.666,1.727-1.319c0.547-0.685,1.088-1.417,1.64-1.793
		c0.118-0.823,0.434-1.48,0.833-2.08c0.382-0.611,0.86-1.155,1.322-1.694c0.878-1.096,1.695-2.207,1.358-3.558
		c1.914-3.19,2.601-6.761,2.78-10.072C380.078,98.906,379.807,95.787,379.911,92.689z M336.615,90.503
		c0.022-0.056,0.057-0.101,0.1-0.121c0.072-0.031,0.174,0.004,0.335,0.167c-0.162,0.153-0.265,0.258-0.328,0.329h-0.113v0.052
		c0-0.067,0.005-0.139,0-0.211C336.604,90.645,336.604,90.565,336.615,90.503z M328.699,104.369
		c0.565-0.435,1.156,0.545,1.388,0.286C329.741,105.313,329.246,104.469,328.699,104.369z M330.604,92.964
		c-0.097,0.119-0.289,0.268-0.085,0.478c-0.449-0.267-0.425-0.419-0.311-0.538c0.116-0.122,0.33-0.209,0.35-0.42
		C330.793,92.724,330.716,92.839,330.604,92.964z M330.826,94.098c0.011-0.054,0.201-0.068,0.468,0.066
		c-0.043,0.062-0.036,0.103-0.043,0.147C330.956,94.241,330.82,94.149,330.826,94.098z M330.945,94.697
		c0.162,0.023,0.325,0.044,0.597,0.07c0.041,0.007-0.073-0.002-0.192-0.012c-0.294-0.014-0.036,0.026-0.009,0.049
		C330.542,94.792,331.15,94.736,330.945,94.697z M331.865,95.118c-0.367,0.252,0.176-0.007,0.068,0.155
		C331.4,95.622,331.301,95.36,331.865,95.118z M331.539,94.834c-0.397,0.053,0.197-0.006-0.571,0.128
		C331.312,94.883,330.422,94.949,331.539,94.834z M332.087,104.531c-0.259,0.921,1.525,0.021,0.903,0.975
		c0.581-0.19,0.594,0.039,1.224,0.176c-0.189,0.583-0.438,0.431-0.63,1.012c-0.752,0.045-0.516-0.327-1.052-0.085
		c0.156-0.301,0.323-0.412,0.496-0.417c-0.339-0.579-0.774-0.183-1.134-0.176c-0.111-0.136,0.162-0.479,0.292-0.746
		c-0.443,0.563-0.263-0.421-0.713,0.277c-0.268,0.263-0.05-0.165,0.103-0.397c-0.064-0.084-0.132,0.005-0.202,0.105
		C331.243,104.747,331.903,104.654,332.087,104.531z M331.993,91.667c0.063-0.24,0.101-0.469,0.274-0.572
		c1.016,0.756-0.663,0.766,0.381,1.45c-0.916-0.356,0.037,0.405-1.035-0.224C331.828,92.16,331.923,91.908,331.993,91.667z
		 M331.614,93.889c-0.884-0.259,0.451,0.479-0.859,0.035c0.372-0.044,0.351-0.349,0.239-0.548
		C331.513,93.414,331.305,93.75,331.614,93.889z M349.772,83.598c0.331-0.762,0.839-0.158,1.257-0.372
		C350.636,83.702,350.226,83.745,349.772,83.598z M354.818,81.296c2.002,0.155,3.136,1.197,4.758,2.458
		C358.011,83.361,356.537,81.944,354.818,81.296z M359.961,82.216c0.655-0.563,0.968,0.213,1.229,0.607
		C360.709,82.959,360.337,82.597,359.961,82.216z M362.545,93.993c0,0.006-0.002,0-0.005-0.003l0.005,0V93.993z M362.702,87.344
		c0.716-0.333,0.874,0.435,1.143,0.893C363.087,88.558,363.251,87.339,362.702,87.344z M349.207,122.786
		c0.761-1.581,2.824-2.433,4.701-3.752c-0.442,1.07-1.168,1.643-1.997,2.111C351.083,121.625,350.161,122.019,349.207,122.786z
		 M351.27,122.784c2.1-1.271,4.188-2.909,6.025-4.652c1.847-1.739,3.458-3.528,4.898-5.101c-1.158,1.809-2.606,3.807-4.45,5.594
		C355.911,120.415,353.681,121.942,351.27,122.784z M362.067,115.26c-1.271,1.824-2.625,3.816-4.094,4.499
		c-1.295,0.612-2.769,2.325-3.843,2.756c-0.489-0.431,0.104-0.653,0.389-0.88c1.342-1.078,3.139-2.214,4.557-3.678
		c2.338-2.346,4.068-5.006,5.215-6.763C364.21,112.628,363.042,113.861,362.067,115.26z M364.915,110.553
		c-0.715-0.364,0.286-0.878,0.298-1.333C365.687,109.77,364.79,109.883,364.915,110.553z M368.565,97.023
		c-0.195-0.677-0.744-1.866-0.023-2.038C368.636,95.899,368.727,96.148,368.565,97.023z M367.819,93.054
		c-0.209-0.707-0.346-1.532-0.556-2.118c1.408,0.836,1.006,2.318,1.065,3.768C368.133,94.407,367.981,93.75,367.819,93.054z
		 M368.587,99.807c-0.1-0.132-0.328-0.552-0.402-0.976c-0.089-0.427-0.013-0.863,0.547-1.072
		C368.667,98.837,368.9,99.256,368.587,99.807z M370.044,99.187C370.475,100.709,369.605,101.199,370.044,99.187L370.044,99.187z
		 M361.197,125.704c-0.103-1.127,0.727-0.711,1.294-1.633c0.017,0.184,0.037,0.37,0.205,0.585
		C361.882,125.187,361.867,125.115,361.197,125.704z M362.845,124.548c-0.016-0.185-0.038-0.37-0.208-0.584
		c0.197-0.137,0.386-0.295,0.578-0.446C363.639,123.95,362.998,124.223,362.845,124.548z M366.144,123.983
		c-1.018,0.947-2.118,1.76-2.821,2.174c0.601-0.857,1.585-1.772,2.571-2.658c0.992-0.873,1.969-1.756,2.611-2.368
		C368.079,121.932,367.166,123.042,366.144,123.983z M372.49,103.254c0.433,0.214,0.604,0.981,0.125,1.256
		C372.373,104.195,372.36,103.768,372.49,103.254z M372.746,112.329c-0.431,0.138-0.371-0.224-0.226-0.616
		c0.127-0.4,0.333-0.843,0.258-0.852C373.684,110.716,372.515,112.01,372.746,112.329z M374.005,108.292
		c-0.363-0.775,0.177-1.993,0.265-3.021C375.371,105.824,374.368,107.822,374.005,108.292z"/>
	<path d="M334.434,88.372c-0.024,0.02-0.049,0.035-0.074,0.055C334.394,88.455,334.419,88.454,334.434,88.372z"/>
	<path d="M334.237,88.028c0-0.032-0.007-0.065-0.027-0.1c-0.057,0.012-0.113,0.031-0.168,0.049
		C334.127,88.017,334.191,88.034,334.237,88.028z"/>
	<path d="M334.9,88.668c0.028,0.006,0.052,0.014,0.075,0.024c0-0.049,0.012-0.099,0.026-0.146l0.032-0.039l0.046-0.019l0.08-0.01
		l0.154-0.005v-0.19h-0.228c-0.047,0-0.045-0.016-0.042-0.021c-0.006,0.011-0.072,0.101-0.594,0.496v0.039
		c0-0.011,0.111-0.022,0.116-0.031c0.019-0.037,0.176-0.052,0.264-0.04c0.326,0.35-0.242,0.042,0.283,0.527
		c0.025,0.032,0.055,0.044,0.081,0.044c-0.106-0.186-0.189-0.368-0.209-0.54C334.955,88.729,334.934,88.701,334.9,88.668z"/>
	<path d="M335.043,88.263C335.043,88.262,335.043,88.262,335.043,88.263L335.043,88.263z"/>
	<path d="M341.918,84.545c-0.704,0.054-1.405,0.184-2.115,0.752c1.414-0.26,3.532-0.229,4.486-1.068
		C343.349,84.481,342.628,84.486,341.918,84.545z"/>
	<path d="M345.172,107.208c-0.245-0.24-0.582-0.28-1.12-0.144C344.46,107.465,345.104,107.136,345.172,107.208z"/>
	<path d="M365.427,114.048c-0.025,0.752-1.03,1.514-1.093,2.248c0.913-1.393,1.903-1.986,2.87-3.789
		c-0.265-0.135-0.589-0.437-0.753-0.284c0.724,0.321-1.063,0.498-0.716,1.058c0.666,0.614,0.003-0.535,0.671,0.074
		c-0.137,0.45-0.509,0.043-0.694,0.304c0.174,0.158,0.472,0.306,0.387,0.484C365.828,113.933,365.621,113.948,365.427,114.048z"/>
	<path d="M367.12,112.262c0.687-1.413,1.102-1.87,0.915-2.46c-0.401-0.175-0.388,0.565-0.619,0.764
		C368.26,111.121,366.479,111.613,367.12,112.262z"/>
	<path d="M362.767,118.191c-0.568,0.797-1.417,1.494-2.167,2.043c-0.745,0.562-1.388,0.985-1.521,1.411
		c-0.057,0.14,1.343-0.569,1.956-1.198C361.597,119.928,362.555,118.624,362.767,118.191z"/>
	<path d="M354.938,124.774c-0.364-0.001-0.425,0.393-0.632,0.529C351.743,126.948,354.625,125.464,354.938,124.774z"/>
	<path d="M345.432,135.845c1.002-0.494,2.02,0.291,2.184-1.017c-0.828,0.162-1.595,0.178-2.383,0.251L345.432,135.845z"/>
</g>
<g>
	<path d="M49.236,174.311c-0.257-0.443-0.567-0.741-0.904-0.977c-0.169-0.116-0.349-0.21-0.536-0.289
		c-0.185-0.083-0.376-0.153-0.574-0.212c-0.791-0.234-1.662-0.358-2.433-0.696c-0.399-0.187-0.701-0.609-1.036-0.904
		c-0.344-0.286-0.727-0.438-1.361-0.069c0.913,0.463,1.94,1.193,3.102,1.834C46.649,173.64,47.937,174.191,49.236,174.311z"/>
	<path d="M37.049,166.616c0.271,0.361,0.566,0.648,1.118,0.574c-0.187-0.145-0.333-0.326-0.468-0.51
		c-0.134-0.185-0.265-0.367-0.395-0.546c-0.264-0.35-0.574-0.627-1.112-0.695C36.571,165.784,36.794,166.24,37.049,166.616z"/>
	<path d="M39.891,169.271c0.349,0.279,0.821,0.397,1.317,0.225c-0.16-0.171-0.335-0.314-0.515-0.439
		c-0.18-0.125-0.368-0.228-0.542-0.332c-0.341-0.213-0.649-0.407-0.759-0.708C39.342,168.53,39.549,168.983,39.891,169.271z"/>
	<path d="M60.051,183.922c0.503-0.019,1.019-0.084,1.571-0.232c-1.299-0.071-2.991-0.426-4.537-0.52
		c-0.726-0.031-1.83-0.293-2.035,0.31c1.41,0.064,2.483,0.256,3.499,0.366C59.056,183.907,59.548,183.929,60.051,183.922z"/>
	<path d="M17.605,152.887c0.084-0.177,0.134-0.328,0.158-0.451c0.048-0.246-0.005-0.382-0.094-0.397
		c-0.089-0.014-0.213,0.092-0.307,0.331c-0.046,0.12,0.103,0.272,0.081,0.459c-0.011,0.094,0.168,0.195,0.168,0.306v0.043
		l-0.185,0.058c0.002,0.039-0.089,0.079-0.086,0.119c0.006,0.081-0.033,0.165-0.023,0.251c0.071-0.152,0.109-0.294,0.162-0.427
		C17.535,153.063,17.564,152.978,17.605,152.887z"/>
	<path d="M33.195,179.054c-0.659,0.437,0.767,1.264,0.994,1.031C33.704,179.458,33.435,179.508,33.195,179.054z"/>
	<path d="M21.49,166.409c0.486,1.252,0.921,2.868,1.632,4.357c0.705,1.484,1.681,2.833,3.02,3.462
		c-1.091-1.17-1.845-2.59-2.517-3.966C22.949,168.883,22.361,167.54,21.49,166.409z"/>
	<path d="M28.646,179.597c-0.252,0.257,0.122,0.845,0.635,1.271c0.506,0.436,1.141,0.706,1.355,0.413
		c-0.519-0.333-0.771-0.541-1.021-0.764C29.365,180.293,29.119,180.052,28.646,179.597z"/>
	<path d="M52.287,186.504c0.043,0.057,0.09,0.108,0.141,0.157C52.447,186.596,52.413,186.535,52.287,186.504z"/>
	<path d="M130.527,89.216c-0.138-2.808-0.712-5.443-1.905-7.595c-0.024-0.095-0.048-0.191-0.073-0.287
		c-0.294-1.014-0.616-1.998-0.969-2.941c-1.45-3.714-3.459-6.513-6.167-8.11c0.442-0.417,0.231-1.047-0.193-1.399
		c-0.72,0.005-0.595,0.224-1.49,0.452c-0.597-0.457-1.591-0.791-2.339-1.2c-0.748-0.405-1.25-0.892-0.867-1.67
		c-0.676-0.595-1.46,0.019-2.518,0.136c-1.778-1.525-3.111-3.591-6.523-3.087c-0.46-0.229-0.984-0.38-1.202-0.91
		c-0.951,0.176-1.576-0.052-2.015-0.515c-1.888-0.22-3.129,0.975-4.176,1.56c-1.648,0.918-3.424,1.949-4.802,3.098
		c-0.689,0.574-1.279,1.178-1.704,1.811c-0.425,0.629-0.685,1.281-0.715,1.961c-0.041,0.918,0.227,1.947,0.672,2.98
		c0.224,0.521,0.493,1.051,0.794,1.583c0.299,0.529,0.623,1.044,0.965,1.563c0.34,0.513,0.705,1.035,1.055,1.52
		c0.35,0.485,0.702,0.959,1.04,1.414c0.169,0.228,0.334,0.451,0.495,0.667c0.155,0.213,0.305,0.419,0.45,0.618
		c0.286,0.398,0.543,0.771,0.757,1.108c0.133,0.21,0.263,0.424,0.391,0.643c0.126,0.217,0.242,0.433,0.359,0.655
		c0.233,0.443,0.458,0.901,0.678,1.372c0.228,0.475,0.412,0.937,0.611,1.419c0.193,0.478,0.393,0.969,0.576,1.456
		c0.175,0.484,0.351,0.971,0.527,1.458l0.269,0.733l0.247,0.724c0.168,0.482,0.344,0.962,0.53,1.44
		c0.167,0.474,0.338,0.942,0.527,1.406c0.413,0.968,0.809,1.891,1.288,2.805c0.247,0.457,0.448,0.911,0.681,1.363
		c0.11,0.215,0.218,0.426,0.326,0.639c-0.094,0.573-0.183,1.147-0.267,1.722c-0.324,2.216-0.59,4.426-0.869,6.494
		c-0.379,2.882-1.005,5.866-1.776,8.89c-0.786,3.023-1.716,6.089-2.755,9.141c-0.255,0.765-0.523,1.526-0.789,2.289
		c-0.13,0.383-0.272,0.76-0.407,1.142l-0.203,0.571l-0.2,0.546l-0.393,1.084l-0.466,1.251l-0.116,0.313l-0.028,0.078l-0.007,0.02
		c-0.068,0.175,0.052-0.135,0.081-0.209l-0.016,0.042l-0.066,0.171l-0.261,0.687c-0.177,0.463-0.337,0.906-0.5,1.354
		c-1.281,3.566-2.29,6.898-3.163,10.128c-0.76,2.813-1.769,5.491-2.789,7.991c-1.019,2.505-2.031,4.853-2.798,7.056
		c-0.144,0.402-0.149,0.868-0.178,1.309c-0.028,0.44-0.068,0.88-0.259,1.258c-0.521,0.969-1.16,1.842-1.812,2.595
		c-0.162,0.189-0.323,0.378-0.484,0.567c-0.163,0.174-0.323,0.349-0.479,0.526l-0.23,0.268l-0.227,0.248
		c-0.149,0.165-0.292,0.334-0.428,0.51c-0.15,0.187-0.299,0.348-0.44,0.527c-0.07,0.089-0.14,0.178-0.209,0.266
		c-0.069,0.088-0.138,0.159-0.206,0.24c-0.135,0.158-0.265,0.32-0.391,0.485c-0.128,0.144-0.251,0.285-0.372,0.433l-0.178,0.224
		l-0.173,0.191c-0.114,0.128-0.226,0.267-0.334,0.399c-0.109,0.111-0.215,0.228-0.32,0.349l-0.078,0.092l-0.039,0.046l-0.019,0.024
		c-0.005,0.006-0.004,0.007-0.006,0.011c-0.01,0.025-0.02,0.054-0.028,0.085s-0.017,0.065-0.024,0.102l-0.011,0.058l-0.005,0.031
		l-0.003,0.016c-0.007,0.007-0.031,0.02-0.045,0.03c-0.266,0.167-0.531,0.334-0.794,0.501l-0.197,0.124l-0.098,0.063l-0.049,0.031
		l-0.012,0.008l-0.006,0.003c-0.337,0.14,0.456-0.188,0.373-0.154l-0.003,0.001l-0.021,0.013c-0.109,0.066-0.219,0.131-0.328,0.197
		c-0.218,0.131-0.437,0.262-0.652,0.392c-0.874,0.499-1.744,0.97-2.625,1.356c-1.071,0.485-2.288,0.75-3.462,0.933
		c-0.586,0.1-1.166,0.159-1.715,0.24c-0.551,0.062-1.072,0.149-1.551,0.237c-2.839,0.563-5.402,1.16-8.092,1.448
		c-1.341,0.139-2.71,0.197-4.126,0.105c-1.414-0.094-2.88-0.331-4.379-0.807c-0.279-0.062,0.004,0.909-0.535,0.769
		c-0.294-0.213-0.618-0.4-0.951-0.586c-0.167-0.092-0.339-0.179-0.512-0.265c-0.171-0.089-0.343-0.179-0.516-0.27
		c-1.273,1.52-2.949,1.002-4.495,0.192c-0.781-0.397-1.525-0.876-2.255-1.175c-0.359-0.159-0.721-0.268-1.08-0.309
		c-0.355-0.046-0.715-0.018-1.08,0.111c0.729,0.593,1.575,1.099,2.452,1.543c0.882,0.438,1.784,0.833,2.65,1.204
		c1.726,0.762,3.264,1.482,4.143,2.778c-1.877-0.59-3.498-0.986-5.281-1.564c-0.886-0.298-1.818-0.632-2.811-1.099
		c-0.994-0.463-2.063-1.038-3.204-1.819c1.162,1.011,2.611,1.97,4.228,2.812c1.615,0.847,3.405,1.562,5.232,2.145
		c1.827,0.588,3.697,1.03,5.489,1.376c1.792,0.35,3.506,0.604,5.046,0.84c0.432,0.075,0.904,0.128,1.378,0.209
		c0.475,0.071,0.953,0.142,1.401,0.233c0.448,0.079,0.866,0.175,1.22,0.292c0.354,0.108,0.644,0.242,0.834,0.404
		c-0.021-0.544,0.165-0.767,0.388-0.824c0.223-0.063,0.486,0.036,0.62,0.145c0.009,1.313-0.667,1.648-1.528,1.772
		c-0.862,0.129-1.889,0.041-2.654,0.586c0.395,0.293,0.832,0.098,1.34-0.049c0.255-0.07,0.528-0.122,0.829-0.081
		c0.302,0.04,0.631,0.161,1.004,0.453c-1.602,0.729-3.387,1.106-5.233,1.215c-1.847,0.11-3.752-0.048-5.628-0.361
		c-1.877-0.313-3.724-0.778-5.501-1.265c-1.78-0.487-3.493-0.993-5.155-1.379c1.454,0.812,3.108,1.354,4.715,1.813
		c1.61,0.462,3.173,0.845,4.529,1.415c0.533,0.235,1.167,1.01,1.702,1.067c0.291,0.021,0.824-0.659,1.281-0.664
		c0.395-0.002,0.745,0.043,1.067,0.142c0.162,0.048,0.316,0.107,0.467,0.174c0.152,0.062,0.299,0.133,0.445,0.208
		c0.292,0.151,0.577,0.322,0.874,0.485c0.297,0.156,0.605,0.308,0.942,0.427c-0.389-0.117-0.702-0.152-0.967-0.156
		c-0.264-0.009-0.478,0.011-0.665,0.013c-0.372,0.001-0.636-0.064-0.94-0.636c-0.338,0.086-0.412,0.613-0.704,0.787
		c0.513-0.771-0.702-1.008-0.865-0.603c0.323,0.118,0.976-0.058,0.675,0.571c-0.275-0.08-0.595-0.126-0.936-0.16
		c-0.339-0.036-0.702-0.047-1.051-0.097c-0.35-0.046-0.689-0.11-0.988-0.22c-0.227-0.087-0.428-0.206-0.592-0.362
		c-0.047,0.161-0.431,0.349-0.622,0.183c0.081-0.274,0.315-0.241,0.349-0.602c-0.434,0.191-0.839,0.281-1.219,0.312
		c-0.379,0.03-0.732-0.002-1.056-0.087c-0.326-0.083-0.625-0.207-0.904-0.351c-0.276-0.151-0.531-0.321-0.769-0.49
		c-0.954-0.683-1.611-1.365-2.478-0.738c0.067-0.255,0.261-0.575,0.065-0.69c-0.047,0.254-0.268,0.309-0.562,0.252
		c-0.293-0.059-0.66-0.224-1.001-0.392c-0.68-0.346-1.259-0.712-1.004-0.231c0.448,0.517,1.478,0.833,2.446,1.187
		c0.242,0.088,0.48,0.182,0.706,0.286c0.226,0.101,0.439,0.208,0.63,0.332c0.381,0.25,0.673,0.558,0.804,0.964
		c-1.743-0.585-3.459-1.266-5.136-2.04c-0.306,1.033-1.358-0.087-2.007,0.017c1.028,0.742,2.305,1.509,3.645,2.172
		c1.339,0.662,2.736,1.224,3.966,1.644c-0.487,0.307-0.335,0.589,0.001,0.741c0.334,0.154,0.842,0.189,1.039,0.037
		c-0.337-0.03-0.44-0.445-0.07-0.485c0.787-0.128-0.094,0.765,0.402,0.812c0.86-0.314,2.247-0.05,3.865,0.325
		c1.615,0.383,3.467,0.892,5.174,1.203c0.301-0.214,0.636-0.296,0.989-0.31c0.354-0.014,0.727,0.053,1.103,0.158
		c0.376,0.105,0.756,0.233,1.12,0.364c0.363,0.132,0.712,0.252,1.021,0.321c-0.547,0.375-1.259,0.607-2.062,0.774
		c-0.802,0.148-1.694,0.218-2.598,0.215c-1.81,0.006-3.657-0.25-4.99-0.339c0.159,0.561,0.774,0.527,1.327,0.536
		c0.554,0.002,1.05,0.041,1.022,0.788c-0.527-0.085-1.055-0.168-1.581-0.272c-0.526-0.098-1.052-0.198-1.574-0.316
		c0.639-1.279-0.468-1.49-1.854-1.68c-1.382-0.194-3.08-0.383-3.467-1.368c0.303,0.171,0.627-0.109,0.336-0.358
		c-0.663-0.313-0.411,0.395-1.077,0.583c-0.562-0.205-1.12-0.387-1.674-0.56c-0.55-0.187-1.102-0.352-1.639-0.563
		c-0.538-0.208-1.07-0.431-1.581-0.72c-0.256-0.144-0.51-0.293-0.757-0.466c-0.246-0.174-0.487-0.362-0.723-0.568
		c0.183-0.374,0.764-0.119,1.289,0.127c0.525,0.243,0.989,0.496,0.903,0.161c-0.317-0.103-0.652-0.255-0.991-0.422
		c-0.337-0.175-0.677-0.369-1.012-0.546c-0.337-0.175-0.66-0.354-0.975-0.476c-0.313-0.126-0.615-0.202-0.892-0.21
		c0.202,0.424,1.068,0.607,1.106,1.083c-0.421,0.184-1.042-0.239-1.623-0.637c-0.292-0.196-0.579-0.375-0.839-0.457
		c-0.258-0.085-0.493-0.068-0.682,0.137c0.966,1.028,2.211,1.83,3.598,2.474c1.388,0.647,2.907,1.158,4.461,1.621
		c0.49,0.53-0.946,0.881,0.014,1.194c0.878,0.719,3.137,1.38,5.521,1.927c2.387,0.557,4.892,0.988,6.367,1.763
		c-0.68-0.047-1.363-0.13-2.049-0.219c-0.685-0.105-1.375-0.209-2.066-0.354c-1.385-0.266-2.778-0.626-4.188-1.029
		c-2.82-0.819-5.69-1.862-8.709-3.048c2.996,1.592,6.213,2.924,9.691,3.881c3.475,0.961,7.212,1.563,11.185,1.643
		c0.451-0.028,0.614-0.398,0.916-0.603c5.766,0.499,11.845,0.077,17.811-1.25c2.979-0.672,5.938-1.55,8.809-2.652l0.539-0.207
		l0.27-0.104l0.135-0.052l0.499-0.208l0.027-0.011l0.054-0.025l0.865-0.389l0.216-0.097l0.108-0.049l0.215-0.106
		c0.287-0.144,0.574-0.291,0.859-0.44c0.285-0.15,0.568-0.302,0.851-0.458l0.421-0.236l0.206-0.118l0.163-0.103
		c0.86-0.552,1.754-1.108,2.524-1.712c0.394-0.299,0.8-0.599,1.176-0.906l1.091-0.936c0.179-0.157,0.365-0.314,0.536-0.474
		l0.5-0.479l0.992-0.969l0.913-0.981c0.302-0.328,0.609-0.657,0.879-0.988l0.831-0.994l0.207-0.249l0.192-0.249l0.383-0.498
		c0.252-0.332,0.51-0.666,0.756-0.999l0.703-0.997c1.85-2.662,3.365-5.31,4.685-7.905c1.321-2.596,2.459-5.146,3.492-7.634
		c1.031-2.489,1.953-4.917,2.812-7.269c1.22-3.337,2.47-6.757,3.763-10.293c0.301-0.828,0.605-1.662,0.912-2.504
		c0.175-0.474,0.35-0.95,0.526-1.427c0.156-0.452,0.312-0.904,0.47-1.36c0.082-0.244,0.163-0.489,0.245-0.734
		c0.084-0.258,0.168-0.518,0.252-0.778c0.083-0.26,0.165-0.52,0.248-0.781c0.076-0.253,0.151-0.507,0.227-0.761
		c0.306-1.018,0.583-2.053,0.852-3.102c2.481-9.932,4.3-19.601,5.759-28.783c0.384-2.439,0.822-4.936,1.131-7.428
		c0.072-0.624,0.154-1.242,0.205-1.864c0.054-0.621,0.104-1.238,0.142-1.851c0.028-0.615,0.047-1.225,0.056-1.829
		C130.577,90.405,130.553,89.805,130.527,89.216z M102.349,62.658c0.27-0.388,1.516-0.283,2.006-0.276
		C103.964,62.918,102.966,62.507,102.349,62.658z M51.356,188.387c-0.352-0.081-0.73-0.239-0.955-0.076
		c0.221-0.349,0.617-0.501,0.971-0.521c0.355-0.027,0.671,0.082,0.734,0.272C52.024,188.484,51.707,188.468,51.356,188.387z
		 M52.921,188.938c-0.3-0.371-0.92,0.047-0.571-1.045c0.171-0.001,0.16,0.128,0.14,0.264c0.154,0.079,0.2-0.041,0.241-0.171
		c0.208,0.087,0.058,0.24-0.05,0.217c0.01,0.264,0.216,0.624,0.336,0.301C53.378,187.931,53.166,188.903,52.921,188.938z
		 M53.644,188.412c0.517-0.71,1.136-0.954,1.895-0.538C55.454,188.959,54.188,188.096,53.644,188.412z M56.985,188.587
		c-0.508-0.033-0.946-0.074-1.139-0.21c0.132-0.311,0.798-0.388,1.434-0.318c0.636,0.071,1.248,0.316,1.269,0.706
		C58.069,188.646,57.494,188.611,56.985,188.587z M59.753,188.448c0.063,0.862-1.305,0.343-0.936-0.324
		C59.083,188.276,59.832,187.975,59.753,188.448z M51.007,192.602c-0.783-0.288-1.452,0.208-1.34-0.801
		c0.389,0.224,0.791,0.154,1.061,0.159C50.996,191.967,51.134,192.057,51.007,192.602z M57.291,195.311
		c-0.369-0.043-0.665-0.255-0.733-0.746c0.333,0.067,0.731,0.086,1.085,0.132c0.354,0.043,0.665,0.122,0.824,0.327
		C58.103,195.212,57.66,195.353,57.291,195.311z M59.196,195.392c-0.355-0.032-0.69-0.245-0.49-0.565
		c0.359,0.042,0.717,0.07,1.077,0.101C59.919,195.281,59.551,195.422,59.196,195.392z M60.949,193.679
		c0.66,0.034,1.395-0.44,1.897,0.096C62.638,194.402,60.709,195.294,60.949,193.679z M97.916,131.403l-0.003,0.007
		C97.917,131.399,97.918,131.395,97.916,131.403z"/>
	<path d="M37.658,182.91c0.85,0.644,2.296,1.027,2.731,1.766c0.154-0.564-0.345-1.951-0.333-0.674
		c-0.511-0.102-0.982-0.525-1.391-0.832C38.26,182.852,37.922,182.633,37.658,182.91z"/>
	<path d="M23.782,173.123c0.104,0.316,0.213,0.74,0.398,1.064c0.186,0.324,0.439,0.553,0.841,0.449
		C24.257,173.695,24.354,173.361,23.782,173.123z"/>
	<path d="M18.374,156.879c-0.155-0.331-0.317-0.666-0.427-1.052c-0.101-0.391-0.155-0.818-0.103-1.36
		c-0.644,0.23-0.556,0.652-0.376,1.144c0.174,0.491,0.479,1.02,0.227,1.512c0.39-0.005,0.486-0.439,0.649-0.153
		c0.017,0.25-0.288,0.308-0.6,0.364c-0.015,0.715,0.505,0.56,0.699,0.927c-0.207,0.591-0.441,1.135-0.478,1.677
		c-0.013,0.269,0.031,0.534,0.156,0.801c0.126,0.266,0.333,0.533,0.669,0.792c-0.255-0.419-0.281-0.757-0.3-1.079
		c-0.017-0.324-0.021-0.635-0.176-1.039c0.279-0.172,0.285-0.353,0.637-0.194c0.027-0.524-0.045-0.939-0.149-1.313
		C18.697,157.533,18.525,157.211,18.374,156.879z"/>
	<path d="M126.89,41.698c0.806-1.085-0.202-1.933-0.325-2.911C125.777,39.906,127.033,40.702,126.89,41.698z"/>
	<path d="M89.867,32.282c0.854,0.567,1.747,1.11,2.627,1.634c0.876,0.516,1.748,1.029,2.605,1.534
		c0.838,0.504,1.653,1.006,2.429,1.519c0.77,0.514,1.463,1.039,2.108,1.586c0.319-0.234,0.581-0.168,0.857-0.181
		c-0.035,0.719,0.917,1.017,1.553,1.25c0.341-0.44,0.275-0.674,0.649-0.621c-0.726,0.74-0.011,0.291-0.25,0.657
		c0.233,0.111,0.46,0.238,0.682,0.378c0.216,0.142,0.421,0.298,0.625,0.465c0.405,0.333,0.792,0.71,1.165,1.114
		c0.383,0.399,0.708,0.843,1.046,1.289c0.33,0.449,0.661,0.901,0.993,1.353c0.31,0.46,0.621,0.913,0.945,1.345
		c0.32,0.433,0.67,0.834,0.998,1.226c0.337,0.386,0.698,0.737,1.093,1.039c0.197,0.151,0.405,0.289,0.62,0.416
		c0.207,0.132,0.425,0.251,0.654,0.354c0.428-0.204,0.954-0.622,1.175-0.342c0.218,0.387,0.431,0.751,0.641,1.098
		c0.053,0.086,0.104,0.172,0.156,0.257c0.048,0.087,0.097,0.174,0.145,0.261c0.096,0.17,0.191,0.339,0.285,0.504
		c0.19,0.329,0.375,0.648,0.557,0.962c0.091,0.157,0.182,0.312,0.271,0.466c0.089,0.154,0.184,0.31,0.25,0.457
		c0.292,0.595,0.573,1.187,0.836,1.817c0.066,0.157,0.13,0.317,0.193,0.479c0.078,0.205,0.157,0.412,0.237,0.623
		c0.16,0.433,0.316,0.885,0.467,1.364c0.243-0.495,0.151-0.943,0.064-1.419c-0.044-0.238-0.087-0.483-0.087-0.743
		c0-0.065,0.002-0.131,0.009-0.199c0.007-0.064,0.022-0.117,0.039-0.179c0.034-0.12,0.084-0.247,0.154-0.382
		c0.161-0.028,0.287-0.02,0.386,0.014c0.05,0.019,0.091,0.038,0.131,0.074c0.041,0.04,0.076,0.085,0.106,0.136
		c0.122,0.203,0.167,0.486,0.198,0.78c0.062,0.588,0.064,1.222,0.5,1.361c0.454-0.804-0.781-1.85,0.8-2.417
		c0.008-0.241-0.025-0.479-0.069-0.715c-0.021-0.107-0.042-0.217-0.063-0.326c-0.02-0.101-0.039-0.203-0.054-0.305
		c-0.061-0.409-0.061-0.833,0.213-1.315c0.33,0.725,0.296,1.409,0.781,2.271c-0.304,0.489,0.15,0.188,0.186-0.124
		c-0.188-0.268-0.218-0.55-0.256-0.832c-0.034-0.265-0.067-0.498-0.277-0.721c0.67-0.745,0.66-1.394,0.627-2.05
		c-0.034-0.656-0.08-1.321,0.456-2.109c0.134,0.243,0.212,0.653,0.271,1.134c0.062,0.48,0.105,1.031,0.153,1.564
		c0.024,0.268,0.049,0.53,0.079,0.779c0.015,0.124,0.03,0.245,0.047,0.362c0.018,0.117,0.041,0.251,0.064,0.367
		c0.095,0.476,0.221,0.854,0.403,1.049c0.107,0.116,1.029,0.125-0.052,0.325c0.287,0.442,0.947,0.184,1.106,0.866
		c0.645-0.453,0.219-1.365,0.898-1.466c0.349,0.291,0.107,0.632,0.097,0.953c0.966-0.618-0.407-1.032,0.763-1.668
		c0.418,0.396-0.282,1.443,0.431,1.458c0.1-1.2,0.09-2.153,0.176-3.06c0.043-0.454,0.111-0.896,0.229-1.352
		c0.116-0.453,0.268-0.911,0.498-1.422c0.12,0.406,0.097,0.718,0.07,1.054c-0.027,0.337-0.044,0.689,0.104,1.163
		c0.188-0.488,0.323-0.971,0.417-1.451c0.095-0.479,0.12-0.95,0.125-1.428c0.004-0.955-0.123-1.917-0.283-2.891
		c-0.175-0.95-0.389-1.894-0.531-2.868c-0.075-0.484-0.121-0.985-0.163-1.473c-0.041-0.49-0.053-0.989-0.026-1.5
		c0.553-0.237,0.563,0.576,0.685,0.791c0.575-1.561,0.295-2.774-0.282-3.834c-0.604-1.036-1.514-1.904-2.197-2.874
		c0.089,0.97,1.054,1.738,0.522,2.821c-0.975-0.776-0.448-1.598-1.543-1.634c0.271-1.317-1.596-2.076-0.522-3.636
		c0.599-0.062,0.498,1.574,1.444,1.415c-0.161-0.988-1.134-1.773-0.758-2.922c-0.195,0.175-0.417,0.474-0.557,0.389
		c0.343-0.486,0.003-0.393,0.212-1.015c-0.574,0.676-0.812-0.283-1.304,0.015c-0.23,0.386,0.686,0.439,0.042,0.942
		c-0.197-0.039-1.046-0.857-1.796-1.746c-0.756-0.868-1.423-1.786-1.208-2.107c-0.076,0.11,0.573,0.333,0.549,0.177
		c-0.133-0.844-0.562-1.246-1.065-1.547c-0.504-0.292-1.085-0.47-1.538-0.912c-0.501-0.483-0.781-1.22-1.151-1.881
		c-0.369-0.654-0.83-1.251-1.677-1.479c0.145-1.76-1.525-1.89-2.362-2.617c-0.333-0.287-0.664-0.601-0.994-0.893
		c-0.33-0.292-0.665-0.577-1.017-0.832c-0.702-0.506-1.482-0.902-2.407-0.95c-0.381-0.021-0.877,0.366-1.219,0.221
		c-1.084-0.458-1.317-1.887-2.688-1.922c-0.243-0.062-0.579,0.646-0.782,0.262c0.009-0.145,0.226-0.948-0.266-0.463
		c0.098,0.073-0.102,0.407-0.258,0.362c0.228-0.308,0.254-0.518,0.189-0.684c-0.394,0.006-0.84,0.445-1.208,0.232
		c-0.132-0.211,0.031-0.567-0.235-0.714c-1.685,0.078-3.484-0.134-5.27,0.202c-1.781,0.336-3.564,1.216-5.229,3.489
		c0.073,0.41,0.789-0.235,0.489,0.354c-1.352,0.362-2.529,0.961-3.199,3.179c-0.187-0.223-0.399-0.245-0.624-0.177
		c-0.594,0.675,0.094,0.743-0.389,1.366c-0.47-0.046-0.296-0.3-0.823-0.32c-0.652,0.601-1.282,1.017-1.999,2.124
		c0.629,0.827,0.053,1.485,0.348,2.447c-0.623,0.055-0.644-0.188-0.828-0.325C83.324,27.221,86.419,30.002,89.867,32.282z
		 M125.02,45.495c0.739-0.187,0.153,0.7,0.4,0.929c-0.142,0.127-0.2,0.082-0.254,0.029c-0.027-0.108-0.138-0.044-0.253,0.029
		C125.047,46.145,125.375,45.779,125.02,45.495z M99.067,36.147c1.107,0.43,1.338,1.041,2.416,1.875
		c-0.465,0.258-1.158,0.07-1.686-0.324C99.27,37.306,98.902,36.707,99.067,36.147z M98.572,36.046
		c-0.691,0.271-0.593-0.292-1.153-0.581C97.887,35.055,98.571,35.595,98.572,36.046z"/>
	<path d="M126.716,43.288c0.146,0.534,0.116,1.23,0.129,1.865c0.014,0.636,0.071,1.209,0.407,1.525
		c-0.13-0.514-0.098-1.192-0.119-1.831C127.112,44.21,127.038,43.612,126.716,43.288z"/>
	<path d="M124.407,32.102c0.338,0.54,0.793,0.972,1.152,1.169l-0.186-0.198c0.217-0.626-0.058-1.062-0.425-1.47
		c-0.184-0.204-0.391-0.402-0.573-0.616c-0.186-0.207-0.349-0.427-0.437-0.689c-0.05,0.312-0.016,0.627,0.075,0.928
		C124.099,31.533,124.237,31.833,124.407,32.102z"/>
</g>
</svg>
